<svg id="Capa_1" enable-background="new 0 0 511.52 511.52" height="512" viewBox="0 0 511.52 511.52" width="512" xmlns="http://www.w3.org/2000/svg"><g><path d="m396.504 325.142c-4.143 0-7.5 3.357-7.5 7.5v29.347c-9.157 3.128-15.763 11.812-15.763 22.015 0 12.827 10.436 23.263 23.263 23.263 3.682 0 7.165-.864 10.263-2.393l24.95 24.95c1.465 1.464 3.385 2.196 5.304 2.196s3.839-.732 5.304-2.196c2.929-2.93 2.929-7.678 0-10.607l-24.95-24.95c1.529-3.098 2.393-6.58 2.393-10.262 0-10.203-6.606-18.887-15.763-22.015v-29.347c-.001-4.144-3.358-7.501-7.501-7.501zm8.263 58.862c0 4.556-3.707 8.263-8.263 8.263s-8.263-3.707-8.263-8.263 3.707-8.263 8.263-8.263 8.263 3.707 8.263 8.263z"/><path d="m192.066 166.798c-3.851-1.534-8.21.349-9.741 4.197l-25.694 64.603c-1.531 3.849.349 8.21 4.197 9.74.91.362 1.847.533 2.77.533 2.982 0 5.802-1.791 6.972-4.73l25.694-64.603c1.53-3.848-.349-8.21-4.198-9.74z"/><path d="m221.311 245.236c.982.432 2.006.636 3.014.636 2.884 0 5.635-1.674 6.87-4.483l28.399-64.603c1.02-2.319.799-4.997-.586-7.118s-3.747-3.4-6.28-3.4h-35.539c-4.142 0-7.5 3.357-7.5 7.5s3.358 7.5 7.5 7.5h24.049l-23.774 54.084c-1.668 3.791.055 8.217 3.847 9.884z"/><path d="m126.945 244.093c4.142 0 7.5-3.357 7.5-7.5v-13.767h4.05c4.142 0 7.5-3.357 7.5-7.5s-3.358-7.5-7.5-7.5h-4.05v-33.974c0-4.722-3.046-8.777-7.58-10.093-4.532-1.312-9.271.479-11.797 4.465-9.274 14.639-26.387 42.938-26.559 43.222-1.4 2.316-1.444 5.207-.114 7.564s3.826 3.815 6.533 3.815h24.517v13.767c0 4.144 3.358 7.501 7.5 7.501zm-18.689-36.267c3.275-5.378 7.313-11.985 11.189-18.269v18.269z"/><path d="m64.793 200.481c-10.23 14.617-16.335 22.61-19.615 26.905-4.085 5.35-5.95 7.791-4.674 11.938.75 2.44 2.598 4.312 5.069 5.135.994.332 1.948.649 14.562.649 4.928 0 11.637-.049 20.823-.164 4.142-.052 7.457-3.451 7.405-7.593-.052-4.11-3.399-7.406-7.498-7.406-.032 0-.064 0-.096.001-6.392.08-13.168.133-18.828.146 3.574-4.783 8.508-11.532 15.141-21.009 4.141-5.917 6.843-11.513 8.03-16.631.057-.245.102-.494.133-.744l.319-2.499c.041-.314.061-.633.061-.95 0-13.25-10.78-24.03-24.03-24.03-11.457 0-21.374 8.15-23.58 19.381-.798 4.064 1.849 8.006 5.914 8.805 4.066.797 8.006-1.848 8.805-5.914.828-4.213 4.554-7.271 8.861-7.271 4.843 0 8.808 3.832 9.021 8.624l-.198 1.545c-.802 3.167-2.693 6.893-5.625 11.082z"/><path d="m109.235 281.763c0-7.773-6.324-14.098-14.098-14.098h-32.922c-7.773 0-14.098 6.324-14.098 14.098v32.922c0 7.773 6.324 14.098 14.098 14.098h32.922c7.773 0 14.098-6.324 14.098-14.098zm-15 32.019h-31.117v-31.117h31.118v31.117z"/><path d="m187.711 281.763c0-7.773-6.324-14.098-14.098-14.098h-32.922c-7.773 0-14.098 6.324-14.098 14.098v32.922c0 7.773 6.324 14.098 14.098 14.098h32.922c7.773 0 14.098-6.324 14.098-14.098zm-15 32.019h-31.118v-31.117h31.118z"/><path d="m266.187 281.763c0-7.773-6.324-14.098-14.097-14.098h-32.922c-7.773 0-14.098 6.324-14.098 14.098v32.922c0 7.773 6.324 14.098 14.098 14.098h32.922c7.773 0 14.097-6.324 14.097-14.098zm-15 32.019h-31.117v-31.117h31.117z"/><path d="m327.979 228.256v-32.923c0-7.773-6.324-14.098-14.098-14.098h-32.922c-7.773 0-14.098 6.324-14.098 14.098v32.923c0 7.773 6.324 14.098 14.098 14.098h32.922c7.774 0 14.098-6.324 14.098-14.098zm-15-.902h-31.117v-31.118h31.117z"/><path d="m358.985 181.236c-7.773 0-14.098 6.324-14.098 14.098v32.923c0 7.773 6.324 14.098 14.098 14.098h32.922c7.773 0 14.098-6.324 14.098-14.098v-32.923c0-7.773-6.324-14.098-14.098-14.098zm32.019 46.118h-31.117v-31.118h31.117z"/><path d="m62.215 402.65h32.922c7.773 0 14.098-6.324 14.098-14.098v-32.922c0-7.773-6.324-14.098-14.098-14.098h-32.922c-7.773 0-14.098 6.324-14.098 14.098v32.922c.001 7.773 6.325 14.098 14.098 14.098zm.903-46.118h31.118v31.117h-31.118z"/><path d="m140.691 402.65h32.922c7.773 0 14.098-6.324 14.098-14.098v-32.922c0-7.773-6.324-14.098-14.098-14.098h-32.922c-7.773 0-14.098 6.324-14.098 14.098v32.922c.001 7.773 6.325 14.098 14.098 14.098zm.903-46.118h31.118v31.117h-31.118z"/><path d="m252.09 341.532h-32.922c-7.773 0-14.098 6.324-14.098 14.098v32.922c0 7.773 6.324 14.098 14.098 14.098h32.922c7.773 0 14.097-6.324 14.097-14.098v-32.922c0-7.773-6.324-14.098-14.097-14.098zm-.903 46.118h-31.117v-31.117h31.117z"/><path d="m267.02 422.813h-215.187c-20.31 0-36.833-16.523-36.833-36.832v-62.021c0-4.143-3.358-7.5-7.5-7.5s-7.5 3.357-7.5 7.5v62.021c0 28.58 23.252 51.832 51.833 51.832h215.187c4.143 0 7.5-3.357 7.5-7.5s-3.357-7.5-7.5-7.5z"/><path d="m7.5 299.497c4.142 0 7.5-3.357 7.5-7.5v-150.458h337.387c4.143 0 7.5-3.357 7.5-7.5s-3.357-7.5-7.5-7.5h-337.387v-24.875c0-20.31 16.523-36.832 36.833-36.832h52.223v15.993c0 11.571 9.414 20.985 20.985 20.985s20.985-9.414 20.985-20.985v-15.993h150.62v15.993c0 11.571 9.413 20.985 20.984 20.985s20.985-9.414 20.985-20.985v-15.993h52.223c20.31 0 36.833 16.522 36.833 36.832v24.875h-43.322c-4.143 0-7.5 3.357-7.5 7.5s3.357 7.5 7.5 7.5h43.322v110.49c0 4.143 3.357 7.5 7.5 7.5s7.5-3.357 7.5-7.5v-150.365c0-28.58-23.252-51.832-51.833-51.832h-52.223v-16.346c0-11.571-9.414-20.985-20.985-20.985s-20.984 9.414-20.984 20.985v16.347h-150.62v-16.347c0-11.571-9.414-20.985-20.985-20.985s-20.985 9.414-20.985 20.985v16.347h-52.223c-28.581-.001-51.833 23.251-51.833 51.831v190.333c0 4.143 3.358 7.5 7.5 7.5zm304.146-266.011c0-3.301 2.685-5.985 5.984-5.985 3.301 0 5.985 2.685 5.985 5.985v47.34c0 3.301-2.685 5.985-5.985 5.985s-5.984-2.685-5.984-5.985zm-192.59 0c0-3.301 2.685-5.985 5.985-5.985s5.985 2.685 5.985 5.985v47.34c0 3.301-2.685 5.985-5.985 5.985s-5.985-2.685-5.985-5.985z"/><path d="m507.449 353.598c-1.094-3.994-5.215-6.348-9.213-5.256-3.995 1.093-6.349 5.218-5.256 9.213 1.692 6.186 2.773 12.534 3.251 18.949h-11.877c-4.143 0-7.5 3.357-7.5 7.5s3.357 7.5 7.5 7.5h11.885c-1.635 21.947-10.384 41.942-23.943 57.686l-8.37-8.37c-2.929-2.929-7.678-2.93-10.606-.001-2.93 2.929-2.93 7.678-.001 10.606l8.37 8.371c-15.743 13.559-35.739 22.308-57.686 23.943v-11.887c0-4.143-3.357-7.5-7.5-7.5s-7.5 3.357-7.5 7.5v11.887c-21.947-1.635-41.942-10.384-57.685-23.943l8.371-8.371c2.929-2.93 2.929-7.678 0-10.607-2.93-2.928-7.678-2.928-10.607 0l-8.371 8.371c-13.558-15.743-22.308-35.738-23.943-57.685h11.886c4.143 0 7.5-3.357 7.5-7.5s-3.357-7.5-7.5-7.5h-11.886c1.635-21.947 10.384-41.943 23.943-57.686l8.371 8.371c1.464 1.464 3.384 2.196 5.303 2.196s3.839-.732 5.304-2.197c2.929-2.929 2.929-7.678-.001-10.606l-8.37-8.37c15.743-13.559 35.739-22.308 57.686-23.943v11.886c0 4.143 3.357 7.5 7.5 7.5s7.5-3.357 7.5-7.5v-11.878c21.571 1.596 41.694 10.038 57.739 23.881l-8.424 8.424c-2.929 2.93-2.929 7.678 0 10.607 1.465 1.464 3.385 2.196 5.304 2.196s3.839-.732 5.304-2.196l8.406-8.406c3.106 3.621 5.989 7.482 8.602 11.586 2.225 3.494 6.858 4.522 10.354 2.298 3.494-2.225 4.522-6.86 2.298-10.354-21.259-33.39-57.552-53.323-97.083-53.323-63.42 0-115.016 51.596-115.016 115.016s51.596 115.014 115.016 115.014 115.016-51.596 115.016-115.016c0-10.298-1.37-20.528-4.071-30.406z"/></g></svg>