<svg xmlns="http://www.w3.org/2000/svg" viewBox="0 0 287.7 368"><defs><style>.cls-1{fill:#5e5f5f;}.cls-2{fill:#889198;}.cls-3{fill:#c49a6c;}.cls-4{fill:#4e4e4e;}.cls-5{fill:#eb3346;}.cls-6{fill:#565856;}.cls-7{fill:#4c4c4b;}.cls-8{fill:#515351;}.cls-9{fill:#231f20;}.cls-10{fill:#7abb7f;}.cls-11{fill:#bdccd4;}.cls-12{fill:#73bdaa;}.cls-13{fill:#74bda0;}.cls-14{fill:#fff;}.cls-15{fill:#d1d3d4;}.cls-16{fill:#010101;}.cls-17{fill:#f3fafe;}.cls-18{fill:#788b9b;}</style></defs><g id="Layer_2" data-name="Layer 2"><g id="Layer_1-2" data-name="Layer 1"><polygon class="cls-1" points="188.4 95 130.5 95 159.5 63.1 188.4 95"/><polygon class="cls-2" points="188 95 188 102 166 102 166 116 159 123.4 153 114.8 153 102 130 102 130 95 188 95"/><path class="cls-3" d="M181,122h5.7a29,29,0,0,1-54.1,0H138V103h-6.3l.4-1H153v13l5.7,8.5,7.3-7.4V102h20.9l.4,1H181Z"/><rect class="cls-4" x="181" y="102" width="8" height="20"/><rect class="cls-4" x="130" y="102" width="8" height="20"/><polygon class="cls-2" points="123 340 123 359.5 130.9 368 145.3 368 152 358.3 152 340 123 340"/><polygon class="cls-2" points="167 340 167 359.5 174.9 368 189.3 368 196 358.3 196 340 167 340"/><polygon class="cls-5" points="139 152 187.3 152 163.2 173.5 139 152"/><path class="cls-6" d="M206.8,340l-11.4,1-28.7-1H151.9l-28.7,1H111.1l23.2-189h60.2l1.5,23.6a69.1,69.1,0,0,0,8.7,133Z"/><polygon class="cls-7" points="134.1 152 80 188.3 80 214.2 129.6 189.4 134.1 152"/><polygon class="cls-8" points="194.5 152 215.7 171.8 196 175.6 194.5 152"/><polygon class="cls-9" points="149.4 234 124.2 234 122.3 249.6 150.1 251.2 149.4 234"/><path class="cls-10" d="M218.6,171.8a70.5,70.5,0,0,0-22.6,3.8,69.2,69.2,0,0,0,8.7,133.2,70.5,70.5,0,0,0,13.9,1.4,69.2,69.2,0,0,0,0-138.4Zm0,115.2a46.1,46.1,0,0,1-15.4-2.5,48.8,48.8,0,1,1,15.4,2.5Z"/><rect class="cls-11" x="34" y="298" width="23" height="63"/><polyline class="cls-12" points="17 298 17 103.7 45.5 69.5 74 103.7 74 298"/><polygon class="cls-13" points="46 68.9 75 103.3 75 298 46 298 46 68.9"/><polygon class="cls-14" points="17 102.9 45.5 68.6 74 102.9 74 206 17 206 17 102.9"/><polyline class="cls-15" points="45.4 68.6 74 102.9 74 206 45 206"/><rect class="cls-9" x="29" y="270" width="34" height="11"/><rect class="cls-9" x="40" y="252" width="10" height="11"/><rect class="cls-9" x="29" y="235" width="34" height="11"/><rect class="cls-9" x="40" y="218" width="10" height="11"/><rect class="cls-9" x="29" y="202" width="34" height="11"/><rect class="cls-9" x="40" y="184" width="10" height="11"/><rect class="cls-9" x="29" y="167" width="34" height="11"/><rect class="cls-9" x="40" y="149" width="10" height="11"/><rect class="cls-9" x="29" y="132" width="34" height="11"/><rect class="cls-9" x="40" y="116" width="10" height="11"/><path class="cls-16" d="M0,303H92V292H80V101.4L51,67V52H40V67.1L11,101.4V292H0ZM23,105.5,46,77.8l23,27.7V292H23V105.5Z"/><polygon class="cls-16" points="62 310 51 310 51 355 40 355 40 310 29 310 29 355 7 355 7 366 86 366 86 355 62 355 62 310"/><rect class="cls-12" x="40" width="11" height="46"/><circle class="cls-14" cx="218.5" cy="238.5" r="49.5"/><path class="cls-17" d="M195.1,253.9h0a31.6,31.6,0,0,1,49.8-38.2,31.2,31.2,0,0,1,9.3,22.4,31.8,31.8,0,0,1-31.7,31.6,32.3,32.3,0,0,1-15.2-3.8h-.1L190.7,270Z"/><path class="cls-18" d="M222.5,206.7h0a31.3,31.3,0,0,1,0,62.5,30.9,30.9,0,0,1-14.9-3.8l-.3-.2h-.4l-15.6,4.1,4.2-15.2v-.4l-.2-.3a31.2,31.2,0,0,1,27.1-46.8m0-.9a32.1,32.1,0,0,0-27.8,48.1l-4.6,16.7,17-4.5a31.8,31.8,0,0,0,15.4,3.9h0a32.1,32.1,0,1,0,0-64.2Z"/><path class="cls-10" d="M222.3,263.5a25.6,25.6,0,0,1-12.1-3.1l-2.4-1.3-2.7.7-5.5,1.4,1.4-5.1.8-2.8-1.5-2.5a26,26,0,0,1-3.4-12.7,25.5,25.5,0,1,1,25.4,25.4Z"/><path class="cls-14" d="M236.4,244.3c-.8-.3-4.5-2.2-5.2-2.4s-1.2-.4-1.7.3-2,2.5-2.4,3a1.2,1.2,0,0,1-1.7.2,20.8,20.8,0,0,1-6.1-3.8,23.1,23.1,0,0,1-4.3-5.3c-.4-.7,0-1.1.4-1.5l1.1-1.3a9.1,9.1,0,0,0,.8-1.3,1.7,1.7,0,0,0-.1-1.4c-.2-.3-1.7-4.1-2.3-5.6s-1.3-1.3-1.7-1.3h-1.5a2.5,2.5,0,0,0-2,.9,8.6,8.6,0,0,0-2.7,6.4c0,3.7,2.7,7.3,3.1,7.9s5.4,8.2,13,11.5l4.4,1.6a11.6,11.6,0,0,0,4.8.3c1.4-.2,4.5-1.9,5.1-3.7a5.8,5.8,0,0,0,.5-3.6C237.7,244.9,237.2,244.7,236.4,244.3Z"/></g></g></svg>